<svg id="visual" viewBox="0 0 900 600" width="900" height="600" xmlns="http://www.w3.org/2000/svg" xmlns:xlink="http://www.w3.org/1999/xlink" version="1.1"><rect x="0" y="0" width="900" height="600" fill="#931C1C"></rect><path d="M0 245L129 342L257 328L386 285L514 336L643 328L771 348L900 327L900 601L771 601L643 601L514 601L386 601L257 601L129 601L0 601Z" fill="#f5730a"></path><path d="M0 362L129 335L257 386L386 370L514 307L643 379L771 297L900 316L900 601L771 601L643 601L514 601L386 601L257 601L129 601L0 601Z" fill="#df6009"></path><path d="M0 446L129 344L257 452L386 451L514 447L643 381L771 419L900 396L900 601L771 601L643 601L514 601L386 601L257 601L129 601L0 601Z" fill="#c94d08"></path><path d="M0 394L129 487L257 423L386 474L514 438L643 439L771 450L900 405L900 601L771 601L643 601L514 601L386 601L257 601L129 601L0 601Z" fill="#b33b06"></path><path d="M0 521L129 454L257 471L386 484L514 516L643 493L771 470L900 518L900 601L771 601L643 601L514 601L386 601L257 601L129 601L0 601Z" fill="#9d2804"></path><path d="M0 520L129 569L257 573L386 546L514 561L643 565L771 544L900 546L900 601L771 601L643 601L514 601L386 601L257 601L129 601L0 601Z" fill="#871400"></path></svg>